<svg xmlns="http://www.w3.org/2000/svg" width="136" height="164"><path fill="#FFF" d="M93.1 38.8c8.2 0 15-5.6 17-13l5.4.7a2.2 2.2 0 002.5-1.8 2.2 2.2 0 00-1.9-2.4l-5.5-.9v-.1-.5s-.5-6.6-1-9.3c-.7-2.7-2.6-3.3-2.6-3.3C97.2 6 87.2 5.8 84.6 5.8S81.4 7 81.4 7l-3.1 5-.2.4a17.4 17.4 0 00-2.4 8.8c0 9.6 7.8 17.5 17.4 17.5zM131.5 78l-26.7-2.2-9.3-21.1s-.4-2.8-6-8.5C84 40.6 72.7 43 72.7 43S49 47.4 41 49.2c-7.9 1.9-8.2 10-8.2 10l-.6 4.4-15.2-3a3 3 0 00-3.5 2.5l-7.4 38.2a3 3 0 002.4 3.5l51.2 10h.3-1.3l-9.4-2-3 17.2-23.6 20.4a7.4 7.4 0 109.8 11L62.1 138C64 136.3 65 134 65 134s4.5-14 5.8-16.9c.8-2 4.9-1 4.9-1l22.9 8.6 7.6 29c0 .7.2 1.3.5 1.8a7.4 7.4 0 0014-4.5c-.8-5-4.5-27-5.5-31.8-1-5.4-4.6-7-4.6-7L87.8 100c-1.3-.7-1-2.7-1-2.7l3.9-14.4 2.8 5.9s1.6 3.3 4 3.4l33.4.8a7.4 7.4 0 007.4-7.4 7.4 7.4 0 00-6.8-7.4zM60.1 62.8l-1.8 5.9 10 2-20.3-4 .5-2.5 11.6-1.4zm-2.2 45.5l-45.3-8.8 6.2-32.4 12.6 2.5L29.7 81l-.6 4.4V85.8a7.4 7.4 0 007.3 8.3 7.4 7.4 0 007.4-8.3l3-13.3L64 76 58 108.3zM25 17h38a2 2 0 002-2c0-1-1-2-2-2H25a2 2 0 00-2 2c0 1.1.8 2 2 2zm13 6a2 2 0 00-2 2c0 1.1.9 2 2 2h23a2 2 0 002-2 2 2 0 00-2-2H38z"/><path fill="#3A3A3A" d="M87.1 32.7c8.1 0 15-5.5 16.9-13l5.5.8a2.2 2.2 0 002.4-1.8 2.2 2.2 0 00-1.8-2.5l-5.5-.8v-.1-.6s-.5-6.5-1.1-9.2c-.6-2.7-2.6-3.3-2.6-3.3C91.2 0 81.2-.2 78.6-.2S75.4 1 75.4 1l-3.1 5-.3.3a17.4 17.4 0 00-2.4 8.9c0 9.6 7.9 17.4 17.5 17.4zM125.5 72L98.8 70l-9.3-21.1s-.4-2.8-6-8.5c-5.5-5.7-16.8-3.4-16.8-3.4S42.8 41.4 35 43.2c-7.9 1.9-8.2 9.9-8.2 9.9l-3 22-.7 4.4v.2a7.4 7.4 0 007.3 8.4 7.4 7.4 0 007.4-8.4l4.7-21.5 11.6-1.4-1.8 5.9 9.9 1.9a3 3 0 012.4 3.5L57 106.3a3 3 0 01-3 2.5H54l-1.3-.1-9.4-1.8-3.1 17-23.6 20.4a7.4 7.4 0 109.9 11.1l29.6-23.6c1.8-1.5 2.7-3.8 2.7-3.8s4.6-14 5.8-17c.9-2 5-1 5-1l22.8 8.6 7.7 29.1c0 .6.2 1.2.4 1.8a7.4 7.4 0 0014.1-4.5l-5.5-31.8c-1.1-5.4-4.6-7-4.6-7L81.8 94c-1.4-.8-1-2.8-1-2.8l3.9-14.3 2.7 5.9s1.7 3.2 4.1 3.4l33.4.8a7.4 7.4 0 00.6-14.9z"/><path fill="#F0C42E" d="M54 108.7h.2a3 3 0 003-2.4l7.4-38.2a3 3 0 00-2.4-3.5l-20.2-4-1.3 6L58 69.8l-6.3 32.3-45.3-8.7L12.8 61l12.5 2.4.9-6L11 54.7A3 3 0 007.5 57L0 95.3a3 3 0 002.3 3.5l51.2 10h.4z"/><path fill="#F0C52E" d="M59 9a2 2 0 01-2 2H19a2 2 0 01-2-2c0-1.1 1-2 2-2h38a2 2 0 012 2zm-2 10c0 1-.9 2-2 2H32a2 2 0 01-2-2 2 2 0 012-2h23a2 2 0 012 2z"/></svg>
