<svg xmlns="http://www.w3.org/2000/svg">
  <defs>
    <style>
      g {
        display: none;
      }
      g:target {
        display: inline;
      }
    </style>
  </defs>
  <g id="icon-plus">
    <path fill="#272525" d="M16 7H9V0H7v7H0v2h7v7h2V9h7z"/>
  </g>
  <g id="icon-search">
    <path d="M15.7 14.3l-3.1-3.1A7 7 0 0014 7a7 7 0 10-7 7 7 7 0 004.2-1.4l3.1 3.1c.2.2.4.3.7.3a1 1 0 001-1 1 1 0 00-.3-.7zM2 7a5 5 0 1110 0A5 5 0 012 7z"/>
  </g>
  <g id="checkbox-off">
    <path d="M20 2c.5 0 1 .5 1 1v17c0 .5-.5 1-1 1H3a1 1 0 01-1-1V3c0-.5.5-1 1-1h17m0-2H3a3 3 0 00-3 3v17a3 3 0 003 3h17a3 3 0 003-3V3a3 3 0 00-3-3z"/>
  </g>
  <g id="checkbox-on">
    <path d="M7.3 7.5l-2.8 2.8 7.7 7.8 14-14-2.9-2.8-11 11.1z"/><path d="M21 20c0 .5-.5 1-1 1H3a1 1 0 01-1-1V3c0-.5.5-1 1-1h17L21.4.4A3 3 0 0020 0H3a3 3 0 00-3 3v17a3 3 0 003 3h17a3 3 0 003-3v-9.8l-2 2V20z"/>
  </g>
  <g id="radio-off">
    <path d="M12.5 4a8.5 8.5 0 110 17 8.5 8.5 0 010-17m0-4a12.5 12.5 0 100 25 12.5 12.5 0 000-25z"/>
  </g>
  <g id="radio-on">
    <path d="M12.5 4a8.5 8.5 0 110 17 8.5 8.5 0 010-17m0-4a12.5 12.5 0 100 25 12.5 12.5 0 000-25z"/><circle cx="12.5" cy="12.5" r="4.5"/>
  </g>
</svg>
