<svg xmlns="http://www.w3.org/2000/svg">
  <defs>
    <style>
      g {
        display: none;
      }
      g:target {
        display: inline;
      }
    </style>
  </defs>
  <g id="icon-plus">
    <path fill="#272525" d="M16 7H9V0H7v7H0v2h7v7h2V9h7z"/>
  </g>
  <g id="icon-search">
    <path d="M15.7 14.3l-3.104-3.104A6.979 6.979 0 0 0 14 7a7 7 0 1 0-7 7 6.963 6.963 0 0 0 4.193-1.404L14.3 15.7c.185.184.38.3.7.3a1 1 0 0 0 1-1 .93.93 0 0 0-.3-.7zM2 7c0-2.762 2.238-5 5-5s5 2.238 5 5-2.238 5-5 5-5-2.238-5-5z"/>
  </g>
  <g id="nav-arrow">
    <path d="M3.83 3.132L.861.144a.5.5 0 0 0-.713 0 .508.508 0 0 0 0 .718l2.611 2.629L.148 6.12a.51.51 0 0 0 0 .72.5.5 0 0 0 .713 0L3.83 3.852a.51.51 0 0 0 .147-.36.507.507 0 0 0-.147-.36z"/>
  </g>
  <g id="checkbox-off">
    <path d="M20 2c.542 0 1 .458 1 1v17c0 .542-.458 1-1 1H3c-.542 0-1-.458-1-1V3c0-.542.458-1 1-1h17m0-2H3C1.35 0 0 1.35 0 3v17c0 1.65 1.35 3 3 3h17c1.65 0 3-1.35 3-3V3c0-1.65-1.35-3-3-3z"/>
  </g>
  <g id="checkbox-on">
    <path d="M7.285 7.486l-2.829 2.829 7.783 7.783L26.171 4.166l-2.828-2.829-11.104 11.102z"/>
    <path d="M21 20c0 .542-.458 1-1 1H3c-.542 0-1-.458-1-1V3c0-.542.458-1 1-1h16.908L21.493.415A2.96 2.96 0 0 0 20 0H3C1.35 0 0 1.35 0 3v17c0 1.65 1.35 3 3 3h17c1.65 0 3-1.35 3-3v-9.829l-2 2V20z"/>
  </g>
  <g id="radio-off">
    <path d="M12.5 4c4.687 0 8.5 3.813 8.5 8.5 0 4.687-3.813 8.5-8.5 8.5C7.813 21 4 17.187 4 12.5 4 7.813 7.813 4 12.5 4m0-4C5.597 0 0 5.597 0 12.5S5.597 25 12.5 25 25 19.403 25 12.5 19.403 0 12.5 0z"/>
  </g>
  <g id="radio-on">
    <path d="M12.5 4c4.687 0 8.5 3.813 8.5 8.5 0 4.687-3.813 8.5-8.5 8.5C7.813 21 4 17.187 4 12.5 4 7.813 7.813 4 12.5 4m0-4C5.597 0 0 5.597 0 12.5S5.597 25 12.5 25 25 19.403 25 12.5 19.403 0 12.5 0z"/>
    <circle cx="12.5" cy="12.5" r="4.5"/>
  </g>
  <g id="delivery">
    <path fill="#FFF" d="M93.1 38.8c8.2 0 15-5.6 17-13l5.4.7a2.2 2.2 0 0 0 2.5-1.8 2.2 2.2 0 0 0-1.9-2.4l-5.5-.9v-.1-.5s-.5-6.6-1-9.3c-.7-2.7-2.6-3.3-2.6-3.3C97.2 6 87.2 5.8 84.6 5.8S81.4 7 81.4 7l-3.1 5-.2.4a17.4 17.4 0 0 0-2.4 8.8c0 9.6 7.8 17.5 17.4 17.5zM131.5 78l-26.7-2.2-9.3-21.1s-.4-2.8-6-8.5C84 40.6 72.7 43 72.7 43S49 47.4 41 49.2c-7.9 1.9-8.2 10-8.2 10l-.6 4.4-15.2-3a3 3 0 0 0-3.5 2.5l-7.4 38.2a3 3 0 0 0 2.4 3.5l51.2 10h.3-1.3l-9.4-2-3 17.2-23.6 20.4a7.4 7.4 0 1 0 9.8 11L62.1 138C64 136.3 65 134 65 134s4.5-14 5.8-16.9c.8-2 4.9-1 4.9-1l22.9 8.6 7.6 29c0 .7.2 1.3.5 1.8a7.4 7.4 0 0 0 14-4.5c-.8-5-4.5-27-5.5-31.8-1-5.4-4.6-7-4.6-7L87.8 100c-1.3-.7-1-2.7-1-2.7l3.9-14.4 2.8 5.9s1.6 3.3 4 3.4l33.4.8a7.4 7.4 0 0 0 7.4-7.4 7.4 7.4 0 0 0-6.8-7.4zM60.1 62.8l-1.8 5.9 10 2-20.3-4 .5-2.5 11.6-1.4zm-2.2 45.5l-45.3-8.8 6.2-32.4 12.6 2.5L29.7 81l-.6 4.4V85.8a7.4 7.4 0 0 0 7.3 8.3 7.4 7.4 0 0 0 7.4-8.3l3-13.3L64 76 58 108.3zM25 17h38a2 2 0 0 0 2-2c0-1-1-2-2-2H25a2 2 0 0 0-2 2c0 1.1.8 2 2 2zm13 6a2 2 0 0 0-2 2c0 1.1.9 2 2 2h23a2 2 0 0 0 2-2 2 2 0 0 0-2-2H38z"/>
    <path fill="#3A3A3A" d="M87.1 32.7c8.1 0 15-5.5 16.9-13l5.5.8a2.2 2.2 0 0 0 2.4-1.8 2.2 2.2 0 0 0-1.8-2.5l-5.5-.8v-.1-.6s-.5-6.5-1.1-9.2c-.6-2.7-2.6-3.3-2.6-3.3C91.2 0 81.2-.2 78.6-.2S75.4 1 75.4 1l-3.1 5-.3.3a17.4 17.4 0 0 0-2.4 8.9c0 9.6 7.9 17.4 17.5 17.4zM125.5 72L98.8 70l-9.3-21.1s-.4-2.8-6-8.5c-5.5-5.7-16.8-3.4-16.8-3.4S42.8 41.4 35 43.2c-7.9 1.9-8.2 9.9-8.2 9.9l-3 22-.7 4.4v.2a7.4 7.4 0 0 0 7.3 8.4 7.4 7.4 0 0 0 7.4-8.4l4.7-21.5 11.6-1.4-1.8 5.9 9.9 1.9a3 3 0 0 1 2.4 3.5L57 106.3a3 3 0 0 1-3 2.5H54l-1.3-.1-9.4-1.8-3.1 17-23.6 20.4a7.4 7.4 0 1 0 9.9 11.1l29.6-23.6c1.8-1.5 2.7-3.8 2.7-3.8s4.6-14 5.8-17c.9-2 5-1 5-1l22.8 8.6 7.7 29.1c0 .6.2 1.2.4 1.8a7.4 7.4 0 0 0 14.1-4.5l-5.5-31.8c-1.1-5.4-4.6-7-4.6-7L81.8 94c-1.4-.8-1-2.8-1-2.8l3.9-14.3 2.7 5.9s1.7 3.2 4.1 3.4l33.4.8a7.4 7.4 0 0 0 .6-14.9z"/>
    <path fill="#F0C42E" d="M54 108.7h.2a3 3 0 0 0 3-2.4l7.4-38.2a3 3 0 0 0-2.4-3.5l-20.2-4-1.3 6L58 69.8l-6.3 32.3-45.3-8.7L12.8 61l12.5 2.4.9-6L11 54.7A3 3 0 0 0 7.5 57L0 95.3a3 3 0 0 0 2.3 3.5l51.2 10h.4z"/>
    <path fill="#F0C52E" d="M59 9a2 2 0 0 1-2 2H19a2 2 0 0 1-2-2c0-1.1 1-2 2-2h38a2 2 0 0 1 2 2zm-2 10c0 1-.9 2-2 2H32a2 2 0 0 1-2-2 2 2 0 0 1 2-2h23a2 2 0 0 1 2 2z"/>
  </g>
  <g id="credit">
    <circle fill="#FFF" cx="141.3" cy="68.9" r="14.8"/>
    <path fill="#FFF" d="M89.1 139.5l-7 18-22.9 14.8a7.2 7.2 0 0 0-3.6 6.3 7.2 7.2 0 0 0 7.1 7.1 7.1 7.1 0 0 0 4.2-1.3l25.5-15.9c3.5-2 4-5 4-5l5-16-5.8-2.7c-5.7-2.6-6.5-5.3-6.5-5.3z"/>
    <path fill="#FFF" d="M139.3 141.5s-1.1-3.9-4.6-5.2-18-7.8-18-7.8L132 103s3.8-9-.4-13.5-13.7-9.7-13.7-9.7h-7.5L126.3 53a12 12 0 0 0-4.3-16.4L72.6 7.4a12 12 0 0 0-16.4 4.3l-47 79.8a12 12 0 0 0 4.2 16.5l49.4 29a12 12 0 0 0 16.4-4.2l23-38.9h8l-14.7 26.2s-5.1 9.2-.3 14.3c4.2 4.4 12.6 6.9 12.6 6.9l17.3 6.5 5 31.3c.6 3.4 3.6 6 7.1 6a7.2 7.2 0 0 0 7.2-7.2v-.5l-5-36zM18 100.2a3 3 0 0 1-1.1-4.1l47-79.8a3 3 0 0 1 4.2-1.1L79.6 22l-50.1 85-11.5-6.8zm53.5 28a3 3 0 0 1-4.2 1.1l-30-17.7 50-85 30.2 17.7a3 3 0 0 1 1 4.1L100 79.8h-8.8L71.3 94.2a7.2 7.2 0 0 0-1.2 1 7.1 7.1 0 0 0-2.4 5.2 7.2 7.2 0 0 0 7.2 7.2 7.1 7.1 0 0 0 4.1-1.3l.6-.5 9.7-7.8-17.8 30.3z"/>
    <path fill="#F0C42E" d="M49.2 6l-47 79.8a12 12 0 0 0 4.2 16.4l49.4 29.1a12 12 0 0 0 16.4-4.2l47-79.9a12 12 0 0 0-4.2-16.4L65.7 1.7a12 12 0 0 0-16.5 4.2zM10 90.2l47-79.8a3 3 0 0 1 4.2-1l11.5 6.7-50.1 85L11 94.5a3 3 0 0 1-1-4.2zm101.6-47.6l-47 79.8a3 3 0 0 1-4.1 1l-30.2-17.7 50.2-85 30 17.8a3 3 0 0 1 1.1 4z"/>
    <circle fill="#3A3A3A" cx="135.3" cy="63.1" r="14.8"/>
    <path fill="#3A3A3A" d="M81.9 133.8l-7.1 17.8-22.8 15a7.2 7.2 0 0 0-3.7 6.2 7.2 7.2 0 0 0 7.2 7.1 7.1 7.1 0 0 0 4.1-1.3l25.5-15.9c3.5-2 4.2-5 4.2-5l4.8-16-5.7-2.7c-5.8-2.6-6.5-5.3-6.5-5.3zm50.2 1.9s-1.2-3.9-4.6-5.2-18-7.7-18-7.7l15.3-25.6s3.9-9-.3-13.5-13.8-9.7-13.8-9.7H84L64 88.4a7.2 7.2 0 0 0-1.1 1 7.1 7.1 0 0 0-2.4 5.2 7.2 7.2 0 0 0 7.1 7.2 7.1 7.1 0 0 0 4.2-1.3l.6-.5L87 88.1H103l-14.8 26.2s-5 9.2-.3 14.3c4.2 4.4 12.7 6.9 12.7 6.9l17.2 6.5 5.1 31.3c.6 3.4 3.5 6 7.1 6a7.2 7.2 0 0 0 7.2-7.2v-.5l-5.1-36z"/>
  </g>
  <g id="warranty">
    <g fill="#FFF">
      <path d="M77.7 174.6L65 159a6.9 6.9 0 0 0-5.6-2.7 12 12 0 0 0-5.5 1.6l-5.5 2.7a19 19 0 0 1-9.3-6.3c-3.3-3.8-3.2-9-3-11l5.8-6c3.1-2.7 2.5-6.5 1.3-8.4l-.3-.3L28.4 110c-1-1.3-2.5-2-4.2-2-2.9 0-5.9 2-6.8 2.6C6.6 118.4 6 125.2 5.8 126v.8a88.6 88.6 0 0 0 35.5 58.5l2.9 2.3a25.5 25.5 0 0 0 16.5 6.4c2.4 0 4.5-.4 6.1-1.2 4.4-2 9.4-8 10.9-9.7 2.5-3.1 1.3-6.6.1-8.3l-.1-.2zm-13.9 12c-.5.1-1.6.4-3 .4-1.6 0-7.1-.3-12-4.6l-3.2-2.6A82 82 0 0 1 13 126.1c.2-1 1.8-4.9 8.6-9.7a11.4 11.4 0 0 1 2.1-1.2l13.5 17-7.5 7.6-.2 1c-.1.5-2 10.4 4.5 18a24.8 24.8 0 0 0 14.6 8.8l1 .2 7.7-3.8.2-.2a5.3 5.3 0 0 1 2.2-.6c2.1 2.8 11 13.9 12.5 15.6a34.4 34.4 0 0 1-8.3 7.7zm74-120.8c5.6-5.2 7.2-12 5-20.8a2.5 2.5 0 0 0-4-1.2l-8.2 7.4a9 9 0 0 1-4.5-5.4l6.8-6.7a2.5 2.5 0 0 0 .1-3.4l-.2-.2a2.5 2.5 0 0 0-.7-.6c-.1 0-4-2-8.8-2-4.7 0-8.8 1.8-12 5.5-6 6.9-4.5 15-3.5 18.4l-3.5 3.5L94 51.1l4.7-3.3-20-13.7L68 44.7l13.7 20L85 60l9.2 10.3-3.3 3.3c-1.5-.5-3.9-1-6.7-1-5.4 0-10.2 2.1-14 6.3-.2.3-6.5 8.2-2.7 18.6a2.5 2.5 0 0 0 4 1l8.3-7.2c1.3.6 3.6 2 4.7 6l-7.4 7.4a2.5 2.5 0 0 0 1.2 4.2c.1 0 2.7.6 6.2.6 6.8 0 12-2.2 15.2-6.5a21 21 0 0 0 4-13.1L120 106l.2.2c1.5 1.2 4.3 2.7 7.5 2.7 2.2 0 4.6-.8 6.8-2.8l5.5-5.6h.1c5-5.4 2.3-11.8.1-14.4l-17-17c1.1.2 2.2.3 3.4.3 4.9 0 8.7-1.3 11.2-3.7zM84.6 52l-2.8 4-7.3-10.7 4.8-4.7 10.6 7.2-4 2.8 14.8 13.3-4 4 1.1-1.1L84.6 52zM98 85.5c.1.3 2.6 7.7-2.3 14.5-2.8 3.8-7.8 4.6-11.4 4.5l4.7-4.7c.6-.6.8-1.4.7-2.2C88 87.4 80 86 79.7 86a2.5 2.5 0 0 0-2 .6L71.5 92c-.6-5.5 2.4-9.4 2.7-9.9 2.7-3 6.1-4.5 10.1-4.5 3.6 0 6.3 1.2 6.3 1.2a2.5 2.5 0 0 0 2.8-.5l19-19a2.5 2.5 0 0 0 .5-2.8s-3.5-8.3 2.2-14.9c2.2-2.5 5-3.8 8.2-3.8 1.2 0 2.4.2 3.4.4l-5 5a2.5 2.5 0 0 0-.8 2.1c1 8.3 9 11 9.3 11.2a2.5 2.5 0 0 0 2.5-.5l6-5.5c.4 4.9-1 8.6-4.3 11.7-2 1.9-5.3 2.3-7.8 2.3-3.7 0-7-.9-7-1a2.5 2.5 0 0 0-2.4.7L98.7 83a2.5 2.5 0 0 0-.6 2.6zm5.5 1.8zm-.2-1zM136.5 97l-5.5 5.5c-3.2 3-6.9.4-7.5-.1l-18.7-18.7 15-15-2 2 18.6 18.7c.5.6 3.1 4.3.1 7.6zm-15.2-28zm-.8-.2z"/>
      <path d="M104.2 6a66 66 0 0 0-8.6 131.3v26.2s57.5-21.2 72-73.6l.2-.8.3-1.3.2-.8a66 66 0 0 0 1.8-15 66 66 0 0 0-66-66zm57.3 79.4v.2l-.2.5-.3 1.2v.4a9.6 9.6 0 0 1-.1.3 98 98 0 0 1-38.5 52.4c-7.4 5.5-14.5 9.5-19.8 12.2v-21.5l-6-.8A59 59 0 1 1 163 72a59 59 0 0 1-1.6 13.5z"/></g>
      <path fill="#3A3A3A" d="M54.6 188c-2.8 0-10-.6-16.6-6.4l-2.8-2.3c-9.5-7.4-29-22.8-35.5-58.5v-.8c0-.8.7-7.6 11.6-15.4.9-.6 4-2.5 6.8-2.5 1.7 0 3.2.6 4.1 1.9L37 122.5l.2.3c1.2 2 1.9 5.7-1.2 8.4l-6 6c0 2-.1 7.2 3.2 11a19 19 0 0 0 9.3 6.3l5.4-2.7c.7-.4 3-1.6 5.6-1.6 2.2 0 4.2 1 5.5 2.7l12.7 15.7.1.2c1.1 1.7 2.3 5.2-.2 8.3a41 41 0 0 1-10.8 9.7c-1.6.8-3.7 1.2-6.1 1.2zM6.7 120.1a82 82 0 0 0 32.8 53.7l3.1 2.6c5 4.3 10.4 4.6 12 4.6 1.5 0 2.6-.3 3-.5 2.2-1 5.8-4.6 8.3-7.7a1648 1648 0 0 1-12.5-15.6c-.8 0-1.8.5-2.1.6l-.2.2-7.7 3.8-1-.2c-1.4-.2-8.4-1.5-14.6-8.8a23 23 0 0 1-4.6-18l.2-1 7.6-7.5-13.5-17c-.7.2-1.5.6-2.2 1-6.8 4.9-8.3 8.9-8.6 9.8z"/>
      <path fill="#F0C42E" d="M78.4 103.5c-3.4 0-6-.6-6.1-.6a2.5 2.5 0 0 1-1.2-4.2l7.3-7.5c-1-3.8-3.3-5.3-4.6-6l-8.3 7.3a2.5 2.5 0 0 1-4-1A19.6 19.6 0 0 1 64.2 73c3.8-4.2 8.6-6.4 14-6.4 2.8 0 5.2.6 6.7 1.1l16.7-16.8c-1-3.4-2.4-11.5 3.6-18.4 3.1-3.7 7.3-5.6 12-5.6 4.8 0 8.6 2 8.8 2.1l.7.6.2.2c.9 1 .8 2.5-.1 3.4l-6.8 6.7a9 9 0 0 0 4.4 5.4l8.2-7.4a2.5 2.5 0 0 1 4.1 1.2c2.2 8.8.5 15.6-5 20.8-2.6 2.4-6.3 3.7-11.2 3.7-2.8 0-5.4-.4-6.9-.8L97.1 79.4C98 82.6 98.8 90 93.7 97c-3.1 4.3-8.4 6.5-15.3 6.5zm-.2-5c3.7 0 8.7-.7 11.4-4.5 5-6.8 2.5-14.2 2.4-14.5a2.5 2.5 0 0 1 .6-2.6L111 58.2a2.5 2.5 0 0 1 2.4-.6s3.3.9 7 .9c2.4 0 5.8-.4 7.8-2.3 3.3-3.1 4.7-6.8 4.3-11.7l-6 5.5a2.5 2.5 0 0 1-2.5.5c-.4-.1-8.3-2.9-9.3-11.2a2.5 2.5 0 0 1 .7-2l5-5a14.4 14.4 0 0 0-3.3-.5c-3.3 0-6 1.3-8.2 3.8-5.7 6.6-2.2 14.8-2.2 15 .4.8.2 2-.5 2.7l-19 19a2.5 2.5 0 0 1-2.8.5s-2.8-1.3-6.3-1.3c-4 0-7.4 1.6-10.1 4.6-.4.5-3.3 4.4-2.8 10l6.2-5.5a2.5 2.5 0 0 1 2-.6c.4 0 8.3 1.4 10.1 11.6a2.5 2.5 0 0 1-.6 2.2l-4.8 4.7z"/>
      <path fill="#3A3A3A" d="M79 54l9.2 10.3 3.5-3.5L78.4 46l-2.7 4-7.3-10.7 4.7-4.7 10.7 7.2-4 2.8 14.8 13.3 3.5-3.6L88 45.1l4.7-3.3-20-13.7-10.7 10.6 13.8 20zm38.1 9.3a37.2 37.2 0 0 1-3.5-.6l-2 2.1 18.7 18.7c.5.6 3.1 4.3 0 7.6l-5.4 5.5c-3.2 3-6.9.4-7.6-.1L98.7 77.8 97 79.4c.3 1 .5 2.6.6 4.5l16.2 16.2.2.2c1.5 1.2 4.3 2.7 7.4 2.7 2.3 0 4.6-.8 6.9-2.8l5.5-5.6c5.1-5.4 2.4-11.8.2-14.4l-17-17z"/>
      <path fill="#3A3A3A" d="M98 7a59 59 0 0 1 57.4 72.4v.2a36.4 36.4 0 0 1-.5 1.7v.4l-.2.3a98 98 0 0 1-38.5 52.4c-7.4 5.5-14.4 9.5-19.7 12.2v-21.5l-6.1-.8A59 59 0 0 1 98 7m0-7a66 66 0 0 0-8.5 131.3v26.2s57.4-21.2 72-73.6l.2-.8c0-.5.2-.9.3-1.3l.2-.8a66 66 0 0 0 1.7-15A66 66 0 0 0 98 0z"/>
  </g>
</svg>
